<svg version="1.1" id="Layer_1" xmlns="http://www.w3.org/2000/svg" xmlns:xlink="http://www.w3.org/1999/xlink" x="0px" y="0px"
	 width="100%" viewBox="0 0 383 400" enable-background="new 0 0 383 400" xml:space="preserve">
<path fill="#000000" opacity="1.000000" stroke="none" 
	d="
M210.000000,401.000000 
	C140.000015,401.000000 70.500023,401.000000 1.000028,401.000000 
	C1.000019,267.666718 1.000019,134.333405 1.000009,1.000082 
	C128.666611,1.000054 256.333221,1.000054 383.999878,1.000027 
	C383.999908,134.333252 383.999908,267.666504 383.999939,400.999878 
	C326.166656,401.000000 268.333344,401.000000 210.000000,401.000000 
M179.663437,236.829544 
	C181.589752,234.506744 183.873978,232.387329 185.341888,229.804047 
	C186.814224,227.212982 188.119339,227.850754 189.969208,229.837738 
	C191.642227,232.239838 193.315262,234.641922 195.227356,237.680878 
	C197.541153,240.754745 199.854950,243.828613 202.014511,247.840317 
	C202.008881,252.801620 201.981750,257.763031 202.003647,262.724213 
	C202.025940,267.774597 204.330063,271.801849 209.004990,273.306915 
	C213.070175,274.615692 217.583084,274.533936 221.996094,275.795105 
	C225.070984,280.435516 228.039917,285.152710 231.303574,289.656342 
	C232.019653,290.644470 234.030975,291.584717 234.996643,291.250275 
	C235.958588,290.917114 236.912933,288.947510 236.899216,287.706177 
	C236.852737,283.499451 236.376007,279.297485 236.989578,275.008881 
	C255.898026,274.672729 274.807709,274.391907 293.714325,273.973297 
	C301.289001,273.805634 308.862701,273.429230 316.426086,272.970581 
	C322.041840,272.630005 328.264832,267.497925 328.940308,262.494141 
	C329.857483,255.699783 330.415619,248.856979 332.044891,242.003067 
	C334.373566,242.002502 336.718536,242.179031 339.027802,241.967117 
	C345.175842,241.402939 351.399170,241.110168 357.418518,239.866852 
	C362.179382,238.883499 364.323486,233.530487 363.069000,228.889771 
	C361.417572,222.780716 356.615662,220.419083 351.598328,218.605438 
	C354.728546,217.208435 358.001770,215.882584 361.150848,214.308395 
	C365.176880,212.295837 367.329834,208.566284 366.776611,204.418716 
	C366.210907,200.177917 363.637207,196.610107 358.705872,195.943680 
	C351.174011,194.925797 343.637512,193.942688 336.011688,192.085022 
	C336.348206,188.200317 336.653137,184.312592 337.026917,180.431473 
	C338.353058,166.661636 339.702759,152.894058 341.823578,139.015900 
	C354.840240,136.249969 362.249359,126.590820 362.988281,118.366127 
	C364.487305,101.680267 359.135010,93.667252 346.377258,87.068611 
	C347.252441,78.806564 348.399872,70.561218 348.907990,62.276661 
	C349.252625,56.657326 345.876221,51.509392 341.565735,50.297455 
	C338.773285,49.512318 335.790466,49.060310 332.891235,49.051868 
	C302.929718,48.964638 272.967316,48.910213 243.006561,49.085239 
	C238.036697,49.114269 233.073547,50.291733 228.008911,50.013676 
	C227.672836,40.928608 227.436951,31.837694 226.907639,22.763901 
	C226.813202,21.145163 225.502655,19.597366 224.753647,18.016804 
	C223.154724,19.116222 220.864197,19.857790 220.077774,21.377626 
	C216.842529,27.630106 213.980591,34.082100 211.133698,40.528000 
	C202.261337,60.616684 193.487320,80.748894 184.560516,100.813217 
	C183.990463,102.094475 182.444534,102.941544 181.352585,103.990601 
	C180.560898,102.909302 179.570145,101.922226 179.007095,100.732704 
	C168.976562,79.542000 159.011490,58.320305 148.980743,37.129696 
	C148.229919,35.543568 147.401276,33.694813 146.057983,32.757706 
	C143.961624,31.295233 141.401855,31.153673 141.052124,34.617889 
	C140.229721,42.764427 139.647110,50.935635 139.007446,59.099991 
	C138.622787,64.009544 138.411774,68.934235 137.951096,73.836006 
	C136.682037,87.339363 134.924911,100.811874 134.164017,114.341751 
	C133.774261,121.272301 132.647812,122.110344 126.558319,122.067039 
	C103.229935,121.901146 79.899483,121.963898 56.570518,122.082634 
	C55.057407,122.090332 53.550362,123.288162 52.040493,123.932373 
	C52.971199,125.406090 53.556263,127.423622 54.886330,128.269012 
	C67.513145,136.294556 80.265167,144.123154 92.983994,152.003860 
	C99.398163,155.978149 105.818130,159.943069 112.491890,164.070831 
	C93.321518,187.553894 73.448181,209.508392 55.546406,233.039017 
	C55.896881,233.425995 56.247356,233.812973 56.597832,234.199951 
	C62.050617,232.502563 67.503403,230.805161 72.970016,229.942169 
	C70.370773,236.332458 72.842072,242.101730 75.074051,248.740021 
	C74.933723,256.361481 77.769920,260.498596 84.660477,263.855408 
	C83.764503,268.545715 83.216988,273.339264 81.866814,277.894958 
	C80.700562,281.830078 82.313309,282.969788 85.638771,282.980438 
	C93.416405,283.005371 101.194504,282.884064 109.743652,282.990204 
	C110.796196,283.016907 111.848732,283.043610 112.996742,283.797211 
	C114.521988,286.336273 116.047234,288.875336 117.504539,291.301300 
	C117.049690,292.698944 116.431488,294.296051 116.009354,295.943390 
	C112.522552,309.550507 108.520454,316.132355 91.454071,311.749390 
	C82.123482,309.353149 72.823288,306.838593 63.311596,304.325104 
	C60.462120,313.769165 57.539345,322.738739 55.115829,331.841248 
	C54.145313,335.486420 56.069733,338.081665 59.994049,339.025146 
	C70.503654,341.551971 80.928749,344.463440 91.498329,346.697388 
	C100.259956,348.549194 109.135880,350.319366 118.172768,348.010315 
	C129.052200,345.230469 136.786957,338.608276 142.481567,328.936737 
	C142.654709,328.956787 142.827866,328.976868 143.237411,329.686310 
	C143.618286,330.748077 143.821365,331.921509 144.407425,332.854370 
	C150.532654,342.604492 156.719284,352.316040 163.070755,362.531677 
	C163.369354,362.603302 163.667953,362.674957 164.827347,362.819763 
	C174.891861,362.140656 184.956375,361.461548 195.547256,360.924652 
	C195.742371,360.631500 195.937469,360.338318 196.877121,359.988342 
	C199.732452,358.108948 199.206100,355.756287 197.726135,353.357513 
	C196.537735,351.431305 195.201218,349.597229 193.967545,347.698151 
	C180.176407,326.468628 166.392487,305.234436 152.622864,283.449799 
	C152.627106,283.265839 152.631363,283.081879 153.570267,282.970795 
	C154.723587,282.983612 155.894119,282.873138 157.027084,283.031525 
	C160.959000,283.581146 162.640335,281.944733 161.998413,278.035736 
	C161.067520,272.367065 160.079559,266.707733 159.746536,260.792694 
	C163.869644,255.538315 167.992737,250.283936 172.738647,244.776520 
	C174.609085,242.484421 176.479523,240.192322 178.738983,237.839417 
	C178.969940,237.659576 179.067917,237.424179 179.663437,236.829544 
z"/>
<path fill="#FFE1E9" opacity="1.000000" stroke="none" 
	d="
M72.956192,229.107773 
	C67.503403,230.805161 62.050617,232.502563 56.597832,234.199951 
	C56.247356,233.812973 55.896881,233.425995 55.546406,233.039017 
	C73.448181,209.508392 93.321518,187.553894 112.491890,164.070831 
	C105.818130,159.943069 99.398163,155.978149 92.983994,152.003860 
	C80.265167,144.123154 67.513145,136.294556 54.886330,128.269012 
	C53.556263,127.423622 52.971199,125.406090 52.040493,123.932373 
	C53.550362,123.288162 55.057407,122.090332 56.570518,122.082634 
	C79.899483,121.963898 103.229935,121.901146 126.558319,122.067039 
	C132.647812,122.110344 133.774261,121.272301 134.164017,114.341751 
	C134.924911,100.811874 136.682037,87.339363 137.951096,73.836006 
	C138.411774,68.934235 138.622787,64.009544 139.007446,59.099991 
	C139.647110,50.935635 140.229721,42.764427 141.052124,34.617889 
	C141.401855,31.153673 143.961624,31.295233 146.057983,32.757706 
	C147.401276,33.694813 148.229919,35.543568 148.980743,37.129696 
	C159.011490,58.320305 168.976562,79.542000 179.007095,100.732704 
	C179.570145,101.922226 180.560898,102.909302 181.352585,103.990601 
	C182.444534,102.941544 183.990463,102.094475 184.560516,100.813217 
	C193.487320,80.748894 202.261337,60.616684 211.133698,40.528000 
	C213.980591,34.082100 216.842529,27.630106 220.077774,21.377626 
	C220.864197,19.857790 223.154724,19.116222 224.753632,18.016808 
	C225.502655,19.597366 226.813202,21.145163 226.907639,22.763901 
	C227.436951,31.837694 227.672836,40.928608 227.904327,50.781471 
	C223.699875,55.145672 220.629074,59.276299 220.188705,64.995201 
	C219.527924,73.576744 218.717606,82.146767 217.539185,90.775192 
	C207.684662,90.974503 203.279510,93.874306 203.154434,100.013641 
	C203.027222,106.258438 206.964645,109.327736 215.960007,110.431328 
	C215.632477,113.145798 215.269165,115.436165 215.031830,117.739517 
	C213.758560,130.096603 212.396912,142.446274 211.295959,154.818985 
	C210.076767,168.520508 209.105896,182.244141 207.592194,195.969452 
	C203.364410,196.267197 198.988449,195.056183 196.645355,199.993118 
	C195.194763,201.640793 194.083832,203.235703 192.585953,204.829758 
	C190.404190,204.436722 188.609360,204.044540 186.967163,203.345032 
	C187.389496,202.623230 187.794632,202.241776 187.905197,201.788467 
	C188.360199,199.923172 188.725723,198.036057 189.124161,196.156952 
	C187.420090,196.896652 185.551285,197.397949 184.051956,198.433960 
	C181.987518,199.860443 180.202362,201.691101 178.480255,203.189621 
	C176.075302,201.699661 176.314621,195.829956 171.864380,200.396332 
	C170.326340,200.029785 169.086319,199.371246 168.074890,199.624741 
	C166.236237,200.085587 164.533447,201.088440 162.773941,201.865082 
	C163.952988,203.542435 164.835266,205.623703 166.401306,206.774384 
	C167.748901,207.764557 169.876480,207.693237 171.704346,208.513046 
	C171.672638,210.365402 171.595779,211.795975 171.365417,213.498352 
	C169.092285,215.175110 166.972626,216.580093 164.464249,217.987030 
	C160.203873,219.138321 156.332230,220.287674 152.180115,221.520279 
	C151.388550,216.065170 150.803879,211.143326 149.936172,206.271881 
	C148.726837,199.482483 147.305786,192.730820 145.955002,185.558395 
	C144.372986,181.097244 140.928925,183.660110 138.397385,183.099182 
	C136.452408,182.668274 133.868988,183.625778 134.076202,180.048584 
	C134.089294,179.925934 133.931458,179.736374 134.282959,179.811737 
	C136.208649,180.253403 137.782837,180.619675 139.357010,180.985962 
	C139.307007,179.341614 139.400116,177.676712 139.167755,176.058548 
	C138.922913,174.353531 138.367172,172.693130 138.076523,170.712936 
	C142.458099,167.206726 139.396790,165.189270 137.033844,162.843903 
	C137.056381,162.625824 137.056168,162.187347 137.426025,162.115448 
	C138.883148,161.011475 139.970413,159.979401 141.057678,158.947327 
	C139.361771,158.293396 137.665878,157.639481 135.952805,156.697845 
	C135.643829,155.944443 135.352036,155.478760 135.128754,154.599869 
	C134.982437,152.487305 134.767578,150.787949 134.449097,148.268951 
	C131.769745,150.049454 129.896942,151.293991 128.030487,152.534302 
	C125.799377,150.973755 123.711533,149.513443 120.647087,147.370041 
	C120.244675,150.667587 119.974792,152.879150 119.519241,155.245911 
	C119.215126,155.866577 119.096680,156.332047 118.563263,156.867706 
	C116.384789,157.635040 114.621292,158.332169 112.857796,159.029297 
	C114.220940,159.783508 115.584084,160.537720 116.910858,161.705719 
	C117.689857,165.403061 118.505234,168.686615 119.222076,172.379776 
	C118.602539,175.877686 118.081535,178.965988 117.272217,182.229813 
	C115.669319,182.609665 114.354744,182.813995 112.621017,183.014923 
	C104.876137,183.106293 102.172676,185.323914 99.675674,193.183182 
	C88.087952,203.417374 78.152130,214.512650 72.956192,229.107773 
M199.544525,158.047272 
	C203.437943,152.073364 207.840668,146.290253 207.938904,138.706177 
	C208.000397,133.959457 204.913925,130.036377 200.753891,129.182007 
	C196.658127,128.340851 192.060547,130.848450 190.159286,134.960480 
	C187.217072,141.323883 190.629395,156.735413 196.391296,162.023071 
	C197.315689,160.892120 198.232834,159.770050 199.544525,158.047272 
z"/>
<path fill="#FDCA72" opacity="1.000000" stroke="none" 
	d="
M195.020889,360.782440 
	C184.956375,361.461548 174.891861,362.140656 164.255005,362.613708 
	C163.452774,362.209991 163.188187,362.086853 162.888916,362.038269 
	C156.719284,352.316040 150.532654,342.604492 144.407425,332.854370 
	C143.821365,331.921509 143.618286,330.748077 143.078369,329.052277 
	C142.339233,327.951721 141.759140,327.485199 141.179047,327.018646 
	C141.059738,327.160675 140.940414,327.302704 140.821106,327.444702 
	C141.206009,327.897705 141.590927,328.350708 141.975830,328.803711 
	C136.786957,338.608276 129.052200,345.230469 118.172768,348.010315 
	C109.135880,350.319366 100.259956,348.549194 91.498329,346.697388 
	C80.928749,344.463440 70.503654,341.551971 59.994049,339.025146 
	C56.069733,338.081665 54.145313,335.486420 55.115829,331.841248 
	C57.539345,322.738739 60.462120,313.769165 63.311596,304.325104 
	C72.823288,306.838593 82.123482,309.353149 91.454071,311.749390 
	C108.520454,316.132355 112.522552,309.550507 116.009354,295.943390 
	C116.431488,294.296051 117.049690,292.698944 117.504539,291.301300 
	C116.047234,288.875336 114.521988,286.336273 113.419868,283.370728 
	C123.596680,282.812988 133.350357,282.681702 143.531769,282.633057 
	C146.297623,282.779694 148.635773,282.843689 151.099701,283.137512 
	C151.685852,283.578735 152.146225,283.790131 152.606628,284.001526 
	C166.392487,305.234436 180.176407,326.468628 193.967545,347.698151 
	C195.201218,349.597229 196.537735,351.431305 197.726135,353.357513 
	C199.206100,355.756287 199.732452,358.108948 196.285980,360.083557 
	C195.409622,360.312378 195.184982,360.513611 195.020889,360.782440 
M124.987747,301.316193 
	C124.491768,300.553070 123.995796,299.789948 123.499817,299.026794 
	C123.125061,299.381714 122.750305,299.736603 122.375549,300.091492 
	C123.248123,300.729767 124.120689,301.368073 125.009819,302.732422 
	C126.215698,304.706604 127.421570,306.680817 128.627457,308.654999 
	C129.121231,308.262543 129.615005,307.870087 130.108780,307.477631 
	C128.408051,305.649597 126.707329,303.821533 124.987747,301.316193 
M133.570694,316.614838 
	C133.671295,315.669250 133.771896,314.723694 133.872498,313.778107 
	C133.382767,313.858276 132.893036,313.938446 132.403305,314.018616 
	C132.617462,314.795593 132.831619,315.572571 133.570694,316.614838 
M120.924713,294.168182 
	C120.761604,294.146973 120.596809,294.100739 120.435867,294.111572 
	C120.275894,294.122345 120.119789,294.190460 119.961990,294.233459 
	C120.610367,295.306610 121.258751,296.379761 121.907127,297.452881 
	C122.219017,297.245117 122.530914,297.037323 122.842804,296.829559 
	C122.366661,296.018921 121.890526,295.208252 120.924713,294.168182 
M140.278015,324.472839 
	C140.011749,324.726074 139.743057,324.977020 139.493271,325.245575 
	C139.486893,325.252411 139.688904,325.453094 139.793732,325.563385 
	C140.060059,325.309845 140.326385,325.056274 140.278015,324.472839 
M135.814163,318.432709 
	C135.809616,318.799744 135.805084,319.166779 135.800537,319.533813 
	C135.952789,319.535614 136.237396,319.547882 136.238190,319.537781 
	C136.266998,319.172577 136.269318,318.805298 135.814163,318.432709 
M131.527420,311.277893 
	C131.274139,311.011597 131.023163,310.742859 130.754532,310.493073 
	C130.747665,310.486664 130.546967,310.688751 130.436661,310.793610 
	C130.690247,311.059967 130.943848,311.326294 131.527420,311.277893 
M138.154510,322.727570 
	C138.058655,322.728180 137.962799,322.728760 138.154510,322.727570 
z"/>
<path fill="#F6F9F5" opacity="1.000000" stroke="none" 
	d="
M150.973923,282.907684 
	C148.635773,282.843689 146.297623,282.779694 143.500565,282.207336 
	C143.027435,275.725220 142.926086,269.749786 143.037918,263.778351 
	C143.089294,261.035217 142.131241,259.897888 139.300934,259.949860 
	C132.499512,260.074707 125.687767,259.837769 118.896019,260.123413 
	C117.531921,260.180756 115.474113,261.643799 115.039810,262.906921 
	C112.784821,269.465332 110.952171,276.168945 108.972412,282.822021 
	C101.194504,282.884064 93.416405,283.005371 85.638771,282.980438 
	C82.313309,282.969788 80.700562,281.830078 81.866814,277.894958 
	C83.216988,273.339264 83.764503,268.545715 85.003418,263.144470 
	C86.853020,254.841553 88.359680,247.249542 90.144966,239.587219 
	C90.885689,237.072830 91.347786,234.628754 91.877213,231.776428 
	C94.620415,218.593277 97.296288,205.818359 99.972153,193.043442 
	C102.172676,185.323914 104.876137,183.106293 112.778664,183.317093 
	C119.697426,186.375443 125.847641,189.788376 132.433533,191.701431 
	C139.485443,193.749893 142.866821,191.739273 145.975342,185.962997 
	C147.305786,192.730820 148.726837,199.482483 149.936172,206.271881 
	C150.803879,211.143326 151.388550,216.065170 152.180115,221.520279 
	C156.332230,220.287674 160.203873,219.138321 164.592834,218.338898 
	C167.615509,225.454025 170.120895,232.219208 172.631882,238.999512 
	C174.847046,238.573639 176.598495,238.236923 178.349945,237.900208 
	C176.479523,240.192322 174.609085,242.484421 172.036804,244.901779 
	C167.207428,246.541763 163.041855,247.964706 158.983795,249.647049 
	C158.151428,249.992111 157.109940,251.390427 157.214127,252.161484 
	C157.618378,255.153488 158.445953,258.088318 159.115936,261.044434 
	C160.079559,266.707733 161.067520,272.367065 161.998413,278.035736 
	C162.640335,281.944733 160.959000,283.581146 157.027084,283.031525 
	C155.894119,282.873138 154.723587,282.983612 152.833435,282.848572 
	C151.722366,282.786804 151.348145,282.847260 150.973923,282.907684 
z"/>
<path fill="#AFDCFD" opacity="1.000000" stroke="none" 
	d="
M331.127747,242.034943 
	C330.415619,248.856979 329.857483,255.699783 328.940308,262.494141 
	C328.264832,267.497925 322.041840,272.630005 316.426086,272.970581 
	C308.862701,273.429230 301.289001,273.805634 293.714325,273.973297 
	C274.807709,274.391907 255.898026,274.672729 236.218155,274.769287 
	C230.930527,274.708679 226.414337,274.887665 221.898132,275.066650 
	C217.583084,274.533936 213.070175,274.615692 209.004990,273.306915 
	C204.330063,271.801849 202.025940,267.774597 202.003647,262.724213 
	C201.981750,257.763031 202.008881,252.801620 202.340302,247.083282 
	C203.058090,243.295227 203.450104,240.264206 204.316284,237.175232 
	C209.931519,237.119110 215.072586,237.120956 220.175049,237.564453 
	C220.136459,240.452057 220.136459,242.898026 220.136459,246.154327 
	C251.554016,246.154327 282.519806,246.154327 313.783478,246.154327 
	C314.103363,244.483398 314.474335,242.545731 315.254913,240.494141 
	C320.818939,240.931793 325.973358,241.483368 331.127747,242.034943 
M268.493988,256.014709 
	C263.502045,256.023499 258.488098,255.768051 253.529892,256.181519 
	C251.745682,256.330322 250.095642,258.088135 248.384369,259.111633 
	C250.064880,260.402374 251.602875,262.475891 253.456909,262.813446 
	C256.842010,263.429657 260.414276,263.031372 263.908478,263.032074 
	C269.566040,263.033234 275.247620,263.309357 280.868622,262.851074 
	C282.940338,262.682129 284.869263,260.761780 286.863312,259.640289 
	C284.898621,258.449188 283.043274,256.545166 280.945282,256.223541 
	C277.203583,255.649887 273.315369,256.032166 268.493988,256.014709 
z"/>
<path fill="#FE71DB" opacity="1.000000" stroke="none" 
	d="
M331.586304,242.019012 
	C325.973358,241.483368 320.818939,240.931793 314.855286,240.348862 
	C312.051208,240.187408 310.056396,240.057312 307.733521,239.780350 
	C304.737335,238.612289 302.069153,237.591080 299.263733,236.295410 
	C298.391327,235.037033 297.656219,234.053131 296.912292,232.673004 
	C296.860687,231.231216 296.817902,230.185669 296.933136,228.852722 
	C297.396088,227.752945 297.700958,226.940552 298.227295,225.873047 
	C299.485687,224.422409 300.522644,223.226883 301.893921,221.979156 
	C305.102448,220.754990 307.976593,219.583023 311.052490,218.328796 
	C309.643463,217.994568 308.264832,217.667557 306.545410,217.206345 
	C303.769104,215.751617 301.333588,214.431122 298.810608,212.822815 
	C298.190002,211.697800 297.656799,210.860626 297.108521,209.628418 
	C296.987030,208.189209 296.880615,207.145050 296.873535,205.744186 
	C297.053741,204.652039 297.134644,203.916595 297.427338,202.935577 
	C298.452332,201.181870 299.265533,199.673767 300.401855,198.024109 
	C306.087341,193.415848 312.474243,192.844788 319.444824,193.216400 
	C325.249054,193.231171 330.676025,193.087997 336.102966,192.944824 
	C343.637512,193.942688 351.174011,194.925797 358.705872,195.943680 
	C363.637207,196.610107 366.210907,200.177917 366.776611,204.418716 
	C367.329834,208.566284 365.176880,212.295837 361.150848,214.308395 
	C358.001770,215.882584 354.728546,217.208435 351.598328,218.605438 
	C356.615662,220.419083 361.417572,222.780716 363.069000,228.889771 
	C364.323486,233.530487 362.179382,238.883499 357.418518,239.866852 
	C351.399170,241.110168 345.175842,241.402939 339.027802,241.967117 
	C336.718536,242.179031 334.373566,242.002502 331.586304,242.019012 
z"/>
<path fill="#AFDCFD" opacity="1.000000" stroke="none" 
	d="
M217.970871,90.721687 
	C218.717606,82.146767 219.527924,73.576744 220.188705,64.995201 
	C220.629074,59.276299 223.699875,55.145672 227.953522,51.243877 
	C233.073547,50.291733 238.036697,49.114269 243.006561,49.085239 
	C272.967316,48.910213 302.929718,48.964638 332.891235,49.051868 
	C335.790466,49.060310 338.773285,49.512318 341.565735,50.297455 
	C345.876221,51.509392 349.252625,56.657326 348.907990,62.276661 
	C348.399872,70.561218 347.252441,78.806564 345.789124,87.428482 
	C340.058411,87.142136 334.915833,86.495918 329.818024,85.400604 
	C330.229706,80.320335 330.474335,75.675186 331.001587,71.062332 
	C331.436707,67.255524 330.320526,65.785629 326.168732,65.863899 
	C312.684113,66.118111 299.191711,65.958855 285.702301,65.958855 
	C271.047119,65.958855 256.391907,65.938087 241.736877,65.983398 
	C239.735916,65.989578 237.232529,65.206329 236.964813,68.691162 
	C236.393295,76.130569 235.651779,83.556931 234.518936,91.067215 
	C228.695602,91.004425 223.333237,90.863060 217.970871,90.721687 
z"/>
<path fill="#FCF665" opacity="1.000000" stroke="none" 
	d="
M329.773285,85.849701 
	C334.915833,86.495918 340.058411,87.142136 345.583618,87.780472 
	C359.135010,93.667252 364.487305,101.680267 362.988281,118.366127 
	C362.249359,126.590820 354.840240,136.249969 340.974579,138.989059 
	C334.837524,138.524445 329.549438,138.086670 323.995514,137.439316 
	C320.276398,134.815063 316.823151,132.400406 313.205536,129.650513 
	C308.126892,122.716560 307.783386,115.123924 308.492981,107.053238 
	C309.917084,100.346565 313.003326,95.033165 318.275574,90.675369 
	C322.318176,88.981369 326.045746,87.415535 329.773285,85.849701 
M319.523804,125.000267 
	C320.913818,126.978088 321.914703,129.491684 323.765106,130.835602 
	C329.881592,135.277847 342.797852,134.939774 348.915161,130.586899 
	C354.267334,126.778481 353.688507,119.984138 347.742249,116.989769 
	C345.760437,115.991783 343.746979,115.056664 341.485748,113.966362 
	C342.637695,112.111694 343.496765,110.914665 344.164825,109.619141 
	C346.437622,105.211395 345.142822,99.641045 341.334717,97.164970 
	C337.143707,94.439949 330.888031,95.124947 327.608429,98.668007 
	C324.166504,102.386436 323.938324,106.761909 327.555389,110.608086 
	C330.431152,113.665970 328.615448,114.837807 326.042480,116.036133 
	C322.461823,117.703758 319.141663,119.552940 319.523804,125.000267 
z"/>
<path fill="#B2C7B3" opacity="1.000000" stroke="none" 
	d="
M220.213654,237.122803 
	C215.072586,237.120956 209.931519,237.119110 203.883972,237.131287 
	C200.314423,237.111542 197.651367,237.077774 194.988297,237.044006 
	C193.315262,234.641922 191.642227,232.239838 190.147339,229.333221 
	C190.572983,228.572372 190.820480,228.316025 191.405945,227.996368 
	C198.224228,223.521957 204.704529,219.110855 211.460480,214.899841 
	C220.943115,224.056198 224.566376,224.167953 234.795563,215.877319 
	C235.405869,215.382675 236.239975,215.164185 237.114838,215.138824 
	C242.168686,219.007019 247.077637,222.553558 251.991730,226.485260 
	C250.923218,233.897049 247.584656,236.687103 239.647018,236.901672 
	C233.171967,237.076675 226.691635,237.056458 220.213654,237.122803 
z"/>
<path fill="#AFDBFC" opacity="1.000000" stroke="none" 
	d="
M324.261383,137.648895 
	C329.549438,138.086670 334.837524,138.524445 340.584534,139.043915 
	C339.702759,152.894058 338.353058,166.661636 337.026917,180.431473 
	C336.653137,184.312592 336.348206,188.200317 336.057312,192.514923 
	C330.676025,193.087997 325.249054,193.231171 319.490875,192.800232 
	C319.407135,191.099426 319.783844,189.983932 319.882751,188.844330 
	C321.363831,171.781052 322.808289,154.714600 324.261383,137.648895 
z"/>
<path fill="#D6E1D3" opacity="1.000000" stroke="none" 
	d="
M109.358032,282.906097 
	C110.952171,276.168945 112.784821,269.465332 115.039810,262.906921 
	C115.474113,261.643799 117.531921,260.180756 118.896019,260.123413 
	C125.687767,259.837769 132.499512,260.074707 139.300934,259.949860 
	C142.131241,259.897888 143.089294,261.035217 143.037918,263.778351 
	C142.926086,269.749786 143.027435,275.725220 143.072845,282.124695 
	C133.350357,282.681702 123.596680,282.812988 113.372131,283.007263 
	C111.848732,283.043610 110.796196,283.016907 109.358032,282.906097 
z"/>
<path fill="#D6E1D5" opacity="1.000000" stroke="none" 
	d="
M99.675674,193.183182 
	C97.296288,205.818359 94.620415,218.593277 91.506737,231.760040 
	C85.988983,233.158951 80.802483,234.003342 79.007362,240.022644 
	C78.994698,240.000854 79.045067,240.000092 78.741753,240.139771 
	C78.254059,240.909515 78.069672,241.539597 77.801483,242.494614 
	C76.867783,244.509308 76.017906,246.199066 75.168030,247.888809 
	C72.842072,242.101730 70.370773,236.332458 72.963104,229.524963 
	C78.152130,214.512650 88.087952,203.417374 99.675674,193.183182 
z"/>
<path fill="#A42B1B" opacity="1.000000" stroke="none" 
	d="
M75.121040,248.314423 
	C76.017906,246.199066 76.867783,244.509308 78.045517,242.278717 
	C78.597267,241.158615 78.821167,240.579346 79.045059,240.000092 
	C79.045067,240.000092 78.994698,240.000854 79.276352,239.972961 
	C80.157806,239.559097 80.757614,239.173141 81.727867,238.924103 
	C82.829712,239.316605 83.561104,239.572174 84.626663,239.866638 
	C85.953773,239.624100 86.946709,239.342697 88.213181,239.014755 
	C88.946587,239.197998 89.406464,239.427765 89.866341,239.657532 
	C88.359680,247.249542 86.853020,254.841553 85.136108,262.772095 
	C77.769920,260.498596 74.933723,256.361481 75.121040,248.314423 
z"/>
<path fill="#FCF665" opacity="1.000000" stroke="none" 
	d="
M178.544464,237.869812 
	C176.598495,238.236923 174.847046,238.573639 172.631882,238.999512 
	C170.120895,232.219208 167.615509,225.454025 164.981537,218.336960 
	C166.972626,216.580093 169.092285,215.175110 171.476929,213.855942 
	C173.820633,219.657745 175.899353,225.373718 178.027496,231.469879 
	C178.395584,233.611115 178.714264,235.372177 179.032944,237.133224 
	C179.067917,237.424179 178.969940,237.659576 178.544464,237.869812 
z"/>
<path fill="#FFE1E9" opacity="1.000000" stroke="none" 
	d="
M221.947113,275.430878 
	C226.414337,274.887665 230.930527,274.708679 235.755203,274.811707 
	C236.376007,279.297485 236.852737,283.499451 236.899216,287.706177 
	C236.912933,288.947510 235.958588,290.917114 234.996643,291.250275 
	C234.030975,291.584717 232.019653,290.644470 231.303574,289.656342 
	C228.039917,285.152710 225.070984,280.435516 221.947113,275.430878 
z"/>
<path fill="#FFE1E9" opacity="1.000000" stroke="none" 
	d="
M159.431244,260.918579 
	C158.445953,258.088318 157.618378,255.153488 157.214127,252.161484 
	C157.109940,251.390427 158.151428,249.992111 158.983795,249.647049 
	C163.041855,247.964706 167.207428,246.541763 171.725403,245.028305 
	C167.992737,250.283936 163.869644,255.538315 159.431244,260.918579 
z"/>
<path fill="#FFE1E9" opacity="1.000000" stroke="none" 
	d="
M179.348190,236.981384 
	C178.714264,235.372177 178.395584,233.611115 178.354065,231.348083 
	C182.721527,228.151199 186.811829,225.456299 190.927765,223.201263 
	C190.991592,225.113983 191.029785,226.586823 191.067993,228.059677 
	C190.820480,228.316025 190.572983,228.572372 190.088196,228.958649 
	C188.119339,227.850754 186.814224,227.212982 185.341888,229.804047 
	C183.873978,232.387329 181.589752,234.506744 179.348190,236.981384 
z"/>
<path fill="#FFE1E9" opacity="1.000000" stroke="none" 
	d="
M195.107819,237.362442 
	C197.651367,237.077774 200.314423,237.111542 203.409805,237.189240 
	C203.450104,240.264206 203.058090,243.295227 202.417404,246.614380 
	C199.854950,243.828613 197.541153,240.754745 195.107819,237.362442 
z"/>
<path fill="#FDCA72" opacity="1.000000" stroke="none" 
	d="
M142.228699,328.870239 
	C141.590927,328.350708 141.206009,327.897705 140.821106,327.444702 
	C140.940414,327.302704 141.059738,327.160675 141.179047,327.018646 
	C141.759140,327.485199 142.339233,327.951721 142.960175,328.707581 
	C142.827866,328.976868 142.654709,328.956787 142.228699,328.870239 
z"/>
<path fill="#FDCA72" opacity="1.000000" stroke="none" 
	d="
M151.099701,283.137512 
	C151.348145,282.847260 151.722366,282.786804 152.366119,282.812134 
	C152.631363,283.081879 152.627106,283.265839 152.614746,283.725647 
	C152.146225,283.790131 151.685852,283.578735 151.099701,283.137512 
z"/>
<path fill="#FDCA72" opacity="1.000000" stroke="none" 
	d="
M195.284073,360.853546 
	C195.184982,360.513611 195.409622,360.312378 195.913696,360.111938 
	C195.937469,360.338318 195.742371,360.631500 195.284073,360.853546 
z"/>
<path fill="#FDCA72" opacity="1.000000" stroke="none" 
	d="
M162.979828,362.284973 
	C163.188187,362.086853 163.452774,362.209991 163.824615,362.577118 
	C163.667953,362.674957 163.369354,362.603302 162.979828,362.284973 
z"/>
<path fill="#AFDBFC" opacity="1.000000" stroke="none" 
	d="
M208.026886,195.958145 
	C209.105896,182.244141 210.076767,168.520508 211.295959,154.818985 
	C212.396912,142.446274 213.758560,130.096603 215.031830,117.739517 
	C215.269165,115.436165 215.632477,113.145798 216.423325,110.350159 
	C222.305634,110.121559 227.702255,110.392242 233.041412,111.105583 
	C232.649109,114.502792 232.288666,117.454704 231.983932,120.412346 
	C230.781403,132.083527 229.510880,143.748596 228.427551,155.430939 
	C227.206619,168.597397 226.160049,181.780045 224.576660,194.986969 
	C218.752731,195.331558 213.389816,195.644852 208.026886,195.958145 
z"/>
<path fill="#FC5F54" opacity="1.000000" stroke="none" 
	d="
M233.098877,110.662918 
	C227.702255,110.392242 222.305634,110.121559 216.445694,109.932053 
	C206.964645,109.327736 203.027222,106.258438 203.154434,100.013641 
	C203.279510,93.874306 207.684662,90.974503 217.539185,90.775192 
	C223.333237,90.863060 228.695602,91.004425 234.980453,91.150696 
	C240.309448,91.159218 244.715942,91.162834 249.472900,91.240753 
	C250.541290,91.293884 251.259216,91.272720 252.251038,91.395157 
	C253.547241,91.568680 254.569565,91.598610 255.868317,91.868805 
	C259.584808,95.325760 263.024872,98.542458 266.653748,101.935707 
	C260.176727,106.637947 255.404495,112.884666 246.474579,111.081192 
	C241.715683,110.877129 237.407272,110.770027 233.098877,110.662918 
z"/>
<path fill="#F7FAF8" opacity="1.000000" stroke="none" 
	d="
M207.592194,195.969452 
	C213.389816,195.644852 218.752731,195.331558 225.040680,195.014862 
	C231.763718,194.781403 237.561951,194.375885 243.359665,194.382919 
	C247.235641,194.387619 251.585358,193.954681 252.970001,199.052872 
	C247.410950,204.389603 242.190430,209.603378 236.969940,214.817169 
	C236.239975,215.164185 235.405869,215.382675 234.795563,215.877319 
	C224.566376,224.167953 220.943115,224.056198 211.356354,214.605743 
	C209.621078,212.748978 208.265579,211.386383 206.775208,209.723572 
	C203.421906,206.262360 200.203476,203.101364 196.985031,199.940369 
	C198.988449,195.056183 203.364410,196.267197 207.592194,195.969452 
z"/>
<path fill="#AE2F1E" opacity="1.000000" stroke="none" 
	d="
M190.902130,222.761414 
	C186.811829,225.456299 182.721527,228.151199 178.304657,230.967896 
	C175.899353,225.373718 173.820633,219.657745 171.630402,213.584167 
	C171.595779,211.795975 171.672638,210.365402 171.810242,208.095215 
	C172.002472,205.008926 172.133957,202.762222 172.265457,200.515533 
	C176.314621,195.829956 176.075302,201.699661 178.480255,203.189621 
	C180.202362,201.691101 181.987518,199.860443 184.051956,198.433960 
	C185.551285,197.397949 187.420090,196.896652 189.124161,196.156952 
	C188.725723,198.036057 188.360199,199.923172 187.905197,201.788467 
	C187.794632,202.241776 187.389496,202.623230 186.686951,203.558594 
	C185.115417,206.150726 183.976700,208.222000 182.384277,211.118561 
	C186.491745,211.999573 189.709885,212.689835 193.062317,213.754578 
	C192.431778,217.006516 191.666962,219.883972 190.902130,222.761414 
z"/>
<path fill="#FF73DB" opacity="1.000000" stroke="none" 
	d="
M199.347260,158.347626 
	C198.232834,159.770050 197.315689,160.892120 196.391296,162.023071 
	C190.629395,156.735413 187.217072,141.323883 190.159286,134.960480 
	C192.060547,130.848450 196.658127,128.340851 200.753891,129.182007 
	C204.913925,130.036377 208.000397,133.959457 207.938904,138.706177 
	C207.840668,146.290253 203.437943,152.073364 199.347260,158.347626 
M201.102707,138.307816 
	C199.510376,138.125076 197.793701,137.531189 196.385422,137.957077 
	C195.802399,138.133392 195.382828,140.694717 195.827011,141.791458 
	C196.136368,142.555344 198.591888,143.359482 199.122086,142.935852 
	C200.239395,142.043152 200.721817,140.355835 201.102707,138.307816 
z"/>
<path fill="#D4DACF" opacity="1.000000" stroke="none" 
	d="
M145.955002,185.558395 
	C142.866821,191.739273 139.485443,193.749893 132.433533,191.701431 
	C125.847641,189.788376 119.697426,186.375443 113.197815,183.320496 
	C114.354744,182.813995 115.669319,182.609665 117.762100,182.272034 
	C123.714569,181.482880 128.888840,180.827057 134.063110,180.171234 
	C133.868988,183.625778 136.452408,182.668274 138.397385,183.099182 
	C140.928925,183.660110 144.372986,181.097244 145.955002,185.558395 
z"/>
<path fill="#AD2D1C" opacity="1.000000" stroke="none" 
	d="
M134.076202,180.048584 
	C128.888840,180.827057 123.714569,181.482880 118.050415,182.096497 
	C118.081535,178.965988 118.602539,175.877686 119.600403,172.368683 
	C121.488792,171.858261 122.900322,171.768555 124.311844,171.678848 
	C123.884933,171.301941 123.458023,170.925034 123.031105,170.548126 
	C123.891029,168.914276 124.349762,166.503723 125.694763,165.809006 
	C128.455063,164.383224 130.919220,164.806824 130.431122,169.075333 
	C130.350250,169.782471 131.305450,171.074646 132.048355,171.334473 
	C137.312103,173.175446 135.982758,176.344101 133.931458,179.736374 
	C133.931458,179.736374 134.089294,179.925934 134.076202,180.048584 
z"/>
<path fill="#871912" opacity="1.000000" stroke="none" 
	d="
M134.282959,179.811737 
	C135.982758,176.344101 137.312103,173.175446 132.048355,171.334473 
	C131.305450,171.074646 130.350250,169.782471 130.431122,169.075333 
	C130.919220,164.806824 128.455063,164.383224 125.694763,165.809006 
	C124.349762,166.503723 123.891029,168.914276 123.031105,170.548126 
	C123.458023,170.925034 123.884933,171.301941 124.311844,171.678848 
	C122.900322,171.768555 121.488792,171.858261 119.698944,171.959045 
	C118.505234,168.686615 117.689857,165.403061 117.377762,161.643585 
	C124.272751,161.507553 130.664459,161.847443 137.056168,162.187347 
	C137.056168,162.187347 137.056381,162.625824 136.886719,163.111145 
	C135.153366,165.317902 133.589691,167.039352 131.357086,169.497208 
	C134.458801,170.210739 136.203033,170.612000 137.947266,171.013245 
	C138.367172,172.693130 138.922913,174.353531 139.167755,176.058548 
	C139.400116,177.676712 139.307007,179.341614 139.357010,180.985962 
	C137.782837,180.619675 136.208649,180.253403 134.282959,179.811737 
z"/>
<path fill="#E0B418" opacity="1.000000" stroke="none" 
	d="
M137.426025,162.115448 
	C130.664459,161.847443 124.272751,161.507553 117.414139,161.229782 
	C115.584084,160.537720 114.220940,159.783508 112.857796,159.029297 
	C114.621292,158.332169 116.384789,157.635040 119.023209,156.966461 
	C125.255402,156.991867 130.612686,156.988724 135.969971,156.985565 
	C137.665878,157.639481 139.361771,158.293396 141.057678,158.947327 
	C139.970413,159.979401 138.883148,161.011475 137.426025,162.115448 
z"/>
<path fill="#3466D0" opacity="1.000000" stroke="none" 
	d="
M192.928040,213.380112 
	C189.709885,212.689835 186.491745,211.999573 182.384277,211.118561 
	C183.976700,208.222000 185.115417,206.150726 186.534332,203.865906 
	C188.609360,204.044540 190.404190,204.436722 192.893280,205.013199 
	C194.736771,205.513123 195.885986,205.828751 196.933487,206.513138 
	C196.564133,209.187210 196.296494,211.492538 195.713623,213.799988 
	C194.574936,213.661438 193.751480,213.520782 192.928040,213.380112 
z"/>
<path fill="#E0B418" opacity="1.000000" stroke="none" 
	d="
M119.704910,155.090729 
	C119.974792,152.879150 120.244675,150.667587 120.647087,147.370041 
	C123.711533,149.513443 125.799377,150.973755 128.030487,152.534302 
	C129.896942,151.293991 131.769745,150.049454 134.449097,148.268951 
	C134.767578,150.787949 134.982437,152.487305 134.657532,154.576355 
	C129.313492,155.007584 124.509201,155.049149 119.704910,155.090729 
z"/>
<path fill="#3769D1" opacity="1.000000" stroke="none" 
	d="
M171.864380,200.396332 
	C172.133957,202.762222 172.002472,205.008926 171.765076,207.673447 
	C169.876480,207.693237 167.748901,207.764557 166.401306,206.774384 
	C164.835266,205.623703 163.952988,203.542435 162.773941,201.865082 
	C164.533447,201.088440 166.236237,200.085587 168.074890,199.624741 
	C169.086319,199.371246 170.326340,200.029785 171.864380,200.396332 
z"/>
<path fill="#D3E0D6" opacity="1.000000" stroke="none" 
	d="
M197.035202,206.144394 
	C195.885986,205.828751 194.736771,205.513123 193.280212,205.014053 
	C194.083832,203.235703 195.194763,201.640793 196.645355,199.993118 
	C200.203476,203.101364 203.421906,206.262360 206.428375,209.715683 
	C205.518158,209.997925 204.819885,209.987869 203.808350,209.837814 
	C201.341782,208.513351 199.188492,207.328873 197.035202,206.144394 
z"/>
<path fill="#AD2D1C" opacity="1.000000" stroke="none" 
	d="
M138.076523,170.712936 
	C136.203033,170.612000 134.458801,170.210739 131.357086,169.497208 
	C133.589691,167.039352 135.153366,165.317902 136.864182,163.329224 
	C139.396790,165.189270 142.458099,167.206726 138.076523,170.712936 
z"/>
<path fill="#D4DACF" opacity="1.000000" stroke="none" 
	d="
M119.519241,155.245911 
	C124.509201,155.049149 129.313492,155.007584 134.588989,154.989532 
	C135.352036,155.478760 135.643829,155.944443 135.952805,156.697845 
	C130.612686,156.988724 125.255402,156.991867 119.438179,156.896271 
	C119.096680,156.332047 119.215126,155.866577 119.519241,155.245911 
z"/>
<path fill="#FDCA72" opacity="1.000000" stroke="none" 
	d="
M125.006607,301.993469 
	C126.707329,303.821533 128.408051,305.649597 130.108780,307.477631 
	C129.615005,307.870087 129.121231,308.262543 128.627457,308.654999 
	C127.421570,306.680817 126.215698,304.706604 125.004913,302.366211 
	C125.000000,302.000000 125.006615,301.993469 125.006607,301.993469 
z"/>
<path fill="#FDCA72" opacity="1.000000" stroke="none" 
	d="
M133.308228,316.482178 
	C132.831619,315.572571 132.617462,314.795593 132.403305,314.018616 
	C132.893036,313.938446 133.382767,313.858276 133.872498,313.778107 
	C133.771896,314.723694 133.671295,315.669250 133.308228,316.482178 
z"/>
<path fill="#FDCA72" opacity="1.000000" stroke="none" 
	d="
M121.169548,294.282898 
	C121.890526,295.208252 122.366661,296.018921 122.842804,296.829559 
	C122.530914,297.037323 122.219017,297.245117 121.907127,297.452881 
	C121.258751,296.379761 120.610367,295.306610 119.961990,294.233459 
	C120.119789,294.190460 120.275894,294.122345 120.435867,294.111572 
	C120.596809,294.100739 120.761604,294.146973 121.169548,294.282898 
z"/>
<path fill="#FDCA72" opacity="1.000000" stroke="none" 
	d="
M124.996628,302.003174 
	C124.120689,301.368073 123.248123,300.729767 122.375549,300.091492 
	C122.750305,299.736603 123.125061,299.381714 123.499817,299.026794 
	C123.995796,299.789948 124.491768,300.553070 124.997177,301.654846 
	C125.006615,301.993469 125.000000,302.000000 124.996628,302.003174 
z"/>
<path fill="#FDCA72" opacity="1.000000" stroke="none" 
	d="
M140.435364,324.637787 
	C140.326385,325.056274 140.060059,325.309845 139.793732,325.563385 
	C139.688904,325.453094 139.486893,325.252411 139.493271,325.245575 
	C139.743057,324.977020 140.011749,324.726074 140.435364,324.637787 
z"/>
<path fill="#FDCA72" opacity="1.000000" stroke="none" 
	d="
M136.044739,318.435486 
	C136.269318,318.805298 136.266998,319.172577 136.238190,319.537781 
	C136.237396,319.547882 135.952789,319.535614 135.800537,319.533813 
	C135.805084,319.166779 135.809616,318.799744 136.044739,318.435486 
z"/>
<path fill="#FDCA72" opacity="1.000000" stroke="none" 
	d="
M131.362427,311.435272 
	C130.943848,311.326294 130.690247,311.059967 130.436646,310.793610 
	C130.546967,310.688751 130.747665,310.486664 130.754532,310.493073 
	C131.023163,310.742859 131.274139,311.011597 131.362427,311.435272 
z"/>
<path fill="#FDCA72" opacity="1.000000" stroke="none" 
	d="
M138.010727,322.728455 
	C137.962799,322.728760 138.058655,322.728180 138.010727,322.728455 
z"/>
<path fill="#F1E060" opacity="1.000000" stroke="none" 
	d="
M81.357422,238.787170 
	C80.757614,239.173141 80.157806,239.559097 79.289017,239.994736 
	C80.802483,234.003342 85.988983,233.158951 91.439400,232.168274 
	C91.347786,234.628754 90.885689,237.072830 90.144966,239.587219 
	C89.406464,239.427765 88.946587,239.197998 87.855316,238.967468 
	C86.502151,238.943542 85.780388,238.920380 85.027718,238.677032 
	C84.996803,238.456863 84.893990,238.024231 84.849121,237.699554 
	C84.052521,237.498581 83.300789,237.622284 82.296669,237.855988 
	C81.815323,238.239716 81.586372,238.513443 81.357422,238.787170 
z"/>
<path fill="#71A1E5" opacity="1.000000" stroke="none" 
	d="
M253.308533,198.929932 
	C251.585358,193.954681 247.235641,194.387619 243.359665,194.382919 
	C237.561951,194.375885 231.763718,194.781403 225.501678,194.983551 
	C226.160049,181.780045 227.206619,168.597397 228.427551,155.430939 
	C229.510880,143.748596 230.781403,132.083527 231.983932,120.412346 
	C232.288666,117.454704 232.649109,114.502792 233.041412,111.105583 
	C237.407272,110.770027 241.715683,110.877129 246.420380,111.476852 
	C245.906982,120.583534 244.997269,129.197586 244.032990,138.229080 
	C243.737579,142.141251 245.386292,144.002563 248.866852,144.110931 
	C267.940369,144.704926 287.014679,145.272446 306.088959,145.841309 
	C309.848663,145.953445 312.017792,144.379318 312.256653,140.366180 
	C312.463165,136.896255 312.986572,133.445160 313.369904,129.985748 
	C316.823151,132.400406 320.276398,134.815063 323.995514,137.439316 
	C322.808289,154.714600 321.363831,171.781052 319.882751,188.844330 
	C319.783844,189.983932 319.407135,191.099426 319.113586,192.642303 
	C312.474243,192.844788 306.087341,193.415848 299.929504,197.997528 
	C290.638306,198.082443 282.140808,197.961533 273.648743,198.123413 
	C272.421295,198.146805 271.219727,199.528000 270.006165,200.280869 
	C271.247803,201.173355 272.460724,202.789337 273.735809,202.839981 
	C281.554565,203.150589 289.387390,203.106888 297.215546,203.181152 
	C297.134644,203.916595 297.053741,204.652039 296.422485,205.724335 
	C288.428070,206.027069 280.981750,205.887985 273.541870,206.048080 
	C272.066681,206.079819 270.616150,207.259750 269.154266,207.910217 
	C270.537537,208.609314 271.906433,209.877960 273.306458,209.913269 
	C281.241394,210.113312 289.183746,210.018127 297.123596,210.023453 
	C297.656799,210.860626 298.190002,211.697800 298.348267,212.822937 
	C289.651886,213.081161 281.326965,212.920380 273.011993,213.138855 
	C271.458740,213.179688 269.945404,214.741058 268.413635,215.600708 
	C269.969696,216.372177 271.485168,217.690521 273.089630,217.809525 
	C277.393890,218.128784 281.737671,218.011734 286.063049,217.927094 
	C293.005280,217.791214 299.945282,217.541916 306.886230,217.340546 
	C308.264832,217.667557 309.643463,217.994568 311.052490,218.328796 
	C307.976593,219.583023 305.102448,220.754990 301.395569,221.929474 
	C291.792114,221.639526 283.022003,221.224670 274.249969,221.179047 
	C272.840607,221.171722 271.422668,222.812943 270.008698,223.692108 
	C271.374878,224.452408 272.720978,225.826218 274.110535,225.871643 
	C282.069916,226.131790 290.039612,226.076431 298.005829,226.128143 
	C297.700958,226.940552 297.396088,227.752945 296.482574,228.826538 
	C288.223907,229.054443 280.571899,228.925262 272.925751,229.082275 
	C271.654449,229.108383 270.408813,230.381546 269.151306,231.078430 
	C270.425110,231.730240 271.686493,232.916611 272.974731,232.946548 
	C280.953491,233.131943 288.938293,233.057434 296.921082,233.069214 
	C297.656219,234.053131 298.391327,235.037033 298.798401,236.390381 
	C289.868561,236.521347 281.266541,236.154099 272.665192,236.169113 
	C271.203125,236.171661 269.743896,237.814392 268.283356,238.699371 
	C269.724548,239.444809 271.153381,240.807785 272.608917,240.836929 
	C283.226532,241.049591 293.849731,241.029251 304.470612,240.974823 
	C305.669342,240.968704 306.864655,240.292633 308.061554,239.927216 
	C310.056396,240.057312 312.051208,240.187408 314.445679,240.462769 
	C314.474335,242.545731 314.103363,244.483398 313.783478,246.154327 
	C282.519806,246.154327 251.554016,246.154327 220.136459,246.154327 
	C220.136459,242.898026 220.136459,240.452057 220.175049,237.564453 
	C226.691635,237.056458 233.171967,237.076675 239.647018,236.901672 
	C247.584656,236.687103 250.923218,233.897049 252.043823,226.060455 
	C252.746811,219.485779 253.593567,213.733780 253.979980,207.951019 
	C254.179001,204.972244 253.558655,201.938721 253.308533,198.929932 
M292.495453,165.860306 
	C296.160583,165.895386 299.825897,165.971619 303.490814,165.955963 
	C309.093872,165.932022 310.954407,164.193176 311.006958,159.050262 
	C311.055817,154.269684 309.270172,152.348755 303.873199,152.241837 
	C292.547150,152.017441 281.216370,151.962051 269.887665,151.972031 
	C264.934265,151.976395 262.912292,154.224274 262.888794,159.012375 
	C262.866638,163.530090 265.367035,165.160248 269.523224,165.244446 
	C276.849487,165.392822 284.173737,165.641800 292.495453,165.860306 
M252.519684,188.028839 
	C269.306335,188.340988 286.092621,188.675934 302.879822,188.953369 
	C309.036011,189.055099 309.225403,188.764816 308.137970,181.339096 
	C285.988525,181.339096 263.668213,181.339096 241.211456,181.339096 
	C241.211456,183.144302 241.211456,185.336212 241.211456,188.018860 
	C244.926437,188.018860 248.227142,188.018860 252.519684,188.028839 
M292.498383,176.874283 
	C297.924530,176.874283 303.350677,176.874283 308.925629,176.874283 
	C309.244263,174.556549 309.484070,172.812088 309.866364,170.031342 
	C286.736633,170.031342 264.235809,170.031342 241.412689,170.031342 
	C241.412689,171.658646 241.412689,173.551208 241.412689,176.864990 
	C258.288513,176.864990 274.893951,176.864990 292.498383,176.874283 
M252.688522,151.270935 
	C251.485794,151.493530 250.287506,151.866348 249.079239,151.902206 
	C247.421158,151.951385 244.834686,151.064468 244.293549,151.796524 
	C243.307266,153.130814 242.697144,155.826385 243.420517,157.121628 
	C245.057205,160.052231 247.600983,162.476242 250.311783,165.754395 
	C253.245300,162.436401 255.775726,160.029953 257.686035,157.204285 
	C258.528259,155.958496 258.808411,153.389618 258.063110,152.287308 
	C257.362030,151.250412 254.975632,151.353027 252.688522,151.270935 
z"/>
<path fill="#71A1E5" opacity="1.000000" stroke="none" 
	d="
M268.991211,256.014709 
	C273.315369,256.032166 277.203583,255.649887 280.945282,256.223541 
	C283.043274,256.545166 284.898621,258.449188 286.863312,259.640289 
	C284.869263,260.761780 282.940338,262.682129 280.868622,262.851074 
	C275.247620,263.309357 269.566040,263.033234 263.908478,263.032074 
	C260.414276,263.031372 256.842010,263.429657 253.456909,262.813446 
	C251.602875,262.475891 250.064880,260.402374 248.384369,259.111633 
	C250.095642,258.088135 251.745682,256.330322 253.529892,256.181519 
	C258.488098,255.768051 263.502045,256.023499 268.991211,256.014709 
z"/>
<path fill="#3769D1" opacity="1.000000" stroke="none" 
	d="
M307.733521,239.780350 
	C306.864655,240.292633 305.669342,240.968704 304.470612,240.974823 
	C293.849731,241.029251 283.226532,241.049591 272.608917,240.836929 
	C271.153381,240.807785 269.724548,239.444809 268.283356,238.699371 
	C269.743896,237.814392 271.203125,236.171661 272.665192,236.169113 
	C281.266541,236.154099 289.868561,236.521347 298.935669,236.664841 
	C302.069153,237.591080 304.737335,238.612289 307.733521,239.780350 
z"/>
<path fill="#3769D1" opacity="1.000000" stroke="none" 
	d="
M306.545410,217.206329 
	C299.945282,217.541916 293.005280,217.791214 286.063049,217.927094 
	C281.737671,218.011734 277.393890,218.128784 273.089630,217.809525 
	C271.485168,217.690521 269.969696,216.372177 268.413635,215.600708 
	C269.945404,214.741058 271.458740,213.179688 273.011993,213.138855 
	C281.326965,212.920380 289.651886,213.081161 298.435730,213.110748 
	C301.333588,214.431122 303.769104,215.751617 306.545410,217.206329 
z"/>
<path fill="#3769D1" opacity="1.000000" stroke="none" 
	d="
M297.427338,202.935577 
	C289.387390,203.106888 281.554565,203.150589 273.735809,202.839981 
	C272.460724,202.789337 271.247803,201.173355 270.006165,200.280869 
	C271.219727,199.528000 272.421295,198.146805 273.648743,198.123413 
	C282.140808,197.961533 290.638306,198.082443 299.606384,198.139099 
	C299.265533,199.673767 298.452332,201.181870 297.427338,202.935577 
z"/>
<path fill="#3466D0" opacity="1.000000" stroke="none" 
	d="
M298.227295,225.873032 
	C290.039612,226.076431 282.069916,226.131790 274.110535,225.871643 
	C272.720978,225.826218 271.374878,224.452408 270.008698,223.692108 
	C271.422668,222.812943 272.840607,221.171722 274.249969,221.179047 
	C283.022003,221.224670 291.792114,221.639526 301.061218,221.981659 
	C300.522644,223.226883 299.485687,224.422409 298.227295,225.873032 
z"/>
<path fill="#3466D0" opacity="1.000000" stroke="none" 
	d="
M297.108521,209.628418 
	C289.183746,210.018127 281.241394,210.113312 273.306458,209.913269 
	C271.906433,209.877960 270.537537,208.609314 269.154266,207.910217 
	C270.616150,207.259750 272.066681,206.079819 273.541870,206.048080 
	C280.981750,205.887985 288.428070,206.027069 296.323151,206.081024 
	C296.880615,207.145050 296.987030,208.189209 297.108521,209.628418 
z"/>
<path fill="#3466D0" opacity="1.000000" stroke="none" 
	d="
M296.912292,232.673004 
	C288.938293,233.057434 280.953491,233.131943 272.974731,232.946548 
	C271.686493,232.916611 270.425110,231.730240 269.151306,231.078430 
	C270.408813,230.381546 271.654449,229.108383 272.925751,229.082275 
	C280.571899,228.925262 288.223907,229.054443 296.324524,229.113937 
	C296.817902,230.185669 296.860687,231.231216 296.912292,232.673004 
z"/>
<path fill="#709FE5" opacity="1.000000" stroke="none" 
	d="
M249.122452,91.166458 
	C244.715942,91.162834 240.309448,91.159218 235.441422,91.072113 
	C235.651779,83.556931 236.393295,76.130569 236.964813,68.691162 
	C237.232529,65.206329 239.735916,65.989578 241.736877,65.983398 
	C256.391907,65.938087 271.047119,65.958855 285.702301,65.958855 
	C299.191711,65.958855 312.684113,66.118111 326.168732,65.863899 
	C330.320526,65.785629 331.436707,67.255524 331.001587,71.062332 
	C330.474335,75.675186 330.229706,80.320335 329.818024,85.400604 
	C326.045746,87.415535 322.318176,88.981369 318.286194,90.242630 
	C318.228760,80.500824 317.782715,79.919579 308.391357,80.042877 
	C292.109894,80.256622 275.831207,80.675034 259.550201,80.932236 
	C251.409164,81.060852 249.431412,82.922409 249.122452,91.166458 
z"/>
<path fill="#3265CF" opacity="1.000000" stroke="none" 
	d="
M249.472900,91.240753 
	C249.431412,82.922409 251.409164,81.060852 259.550201,80.932236 
	C275.831207,80.675034 292.109894,80.256622 308.391357,80.042877 
	C317.782715,79.919579 318.228760,80.500824 317.971130,90.370804 
	C313.003326,95.033165 309.917084,100.346565 308.256531,106.748322 
	C302.818024,103.025772 299.894501,102.856796 295.568359,107.183182 
	C292.557861,110.193863 290.123932,113.860878 287.833588,117.487984 
	C285.801117,120.706665 284.565826,124.427963 282.540375,127.652046 
	C279.521667,132.457260 275.564484,132.369156 272.317444,127.708656 
	C271.748291,126.891739 271.291840,125.997261 270.755859,125.156097 
	C266.575562,118.595413 262.203796,118.083595 256.749847,123.783005 
	C252.396484,128.332306 248.298782,133.126282 244.087585,137.811646 
	C244.997269,129.197586 245.906982,120.583534 246.870895,111.573822 
	C255.404495,112.884666 260.176727,106.637947 266.653748,101.935707 
	C263.024872,98.542458 259.584808,95.325760 255.638763,91.682297 
	C254.080887,91.254204 253.029022,91.252876 251.977142,91.251556 
	C251.259216,91.272720 250.541290,91.293884 249.472900,91.240753 
M284.507385,99.673065 
	C285.817017,100.586166 287.126648,101.499275 288.270416,102.296738 
	C289.871796,101.482628 291.675873,101.134712 292.415802,100.056496 
	C293.538696,98.420280 294.878906,95.957825 294.370087,94.432213 
	C293.778015,92.656868 291.476135,90.669624 289.592346,90.258430 
	C284.575470,89.163368 282.127563,93.329559 284.507385,99.673065 
z"/>
<path fill="#02DDB8" opacity="1.000000" stroke="none" 
	d="
M244.032990,138.229095 
	C248.298782,133.126282 252.396484,128.332306 256.749847,123.783005 
	C262.203796,118.083595 266.575562,118.595413 270.755859,125.156097 
	C271.291840,125.997261 271.748291,126.891739 272.317444,127.708656 
	C275.564484,132.369156 279.521667,132.457260 282.540375,127.652046 
	C284.565826,124.427963 285.801117,120.706665 287.833588,117.487984 
	C290.123932,113.860878 292.557861,110.193863 295.568359,107.183182 
	C299.894501,102.856796 302.818024,103.025772 308.028839,107.046890 
	C307.783386,115.123924 308.126892,122.716560 313.205536,129.650513 
	C312.986572,133.445160 312.463165,136.896255 312.256653,140.366180 
	C312.017792,144.379318 309.848663,145.953445 306.088959,145.841309 
	C287.014679,145.272446 267.940369,144.704926 248.866852,144.110931 
	C245.386292,144.002563 243.737579,142.141251 244.032990,138.229095 
z"/>
<path fill="#FE5E4F" opacity="1.000000" stroke="none" 
	d="
M319.437958,124.641647 
	C319.141663,119.552940 322.461823,117.703758 326.042480,116.036133 
	C328.615448,114.837807 330.431152,113.665970 327.555389,110.608086 
	C323.938324,106.761909 324.166504,102.386436 327.608429,98.668007 
	C330.888031,95.124947 337.143707,94.439949 341.334717,97.164970 
	C345.142822,99.641045 346.437622,105.211395 344.164825,109.619141 
	C343.496765,110.914665 342.637695,112.111694 341.485748,113.966362 
	C343.746979,115.056664 345.760437,115.991783 347.742249,116.989769 
	C353.688507,119.984138 354.267334,126.778481 348.915161,130.586899 
	C342.797852,134.939774 329.881592,135.277847 323.765106,130.835602 
	C321.914703,129.491684 320.913818,126.978088 319.437958,124.641647 
z"/>
<path fill="#D3E0D6" opacity="1.000000" stroke="none" 
	d="
M252.970001,199.052872 
	C253.558655,201.938721 254.179001,204.972244 253.979980,207.951019 
	C253.593567,213.733780 252.746811,219.485779 252.038666,225.675323 
	C247.077637,222.553558 242.168686,219.007019 237.114838,215.138824 
	C242.190430,209.603378 247.410950,204.389603 252.970001,199.052872 
z"/>
<path fill="#D4DACF" opacity="1.000000" stroke="none" 
	d="
M204.121613,209.977814 
	C204.819885,209.987869 205.518158,209.997925 206.563263,210.015900 
	C208.265579,211.386383 209.621078,212.748978 211.080688,214.405670 
	C204.704529,219.110855 198.224228,223.521957 191.405960,227.996368 
	C191.029785,226.586823 190.991592,225.113983 190.927765,223.201263 
	C191.666962,219.883972 192.431778,217.006516 193.062317,213.754608 
	C193.751480,213.520782 194.574936,213.661438 196.125793,213.861649 
	C199.500366,213.020279 204.456161,216.374603 204.121613,209.977814 
z"/>
<path fill="#F1E060" opacity="1.000000" stroke="none" 
	d="
M78.741745,240.139771 
	C78.821167,240.579346 78.597267,241.158615 78.129333,241.953766 
	C78.069672,241.539597 78.254059,240.909515 78.741745,240.139771 
z"/>
<path fill="#871912" opacity="1.000000" stroke="none" 
	d="
M84.893990,238.024231 
	C84.893990,238.024231 84.996803,238.456863 84.870117,238.812866 
	C84.476700,239.308884 84.326385,239.528519 84.292496,239.827759 
	C83.561104,239.572174 82.829712,239.316605 81.727867,238.924103 
	C81.586372,238.513443 81.815323,238.239716 82.687881,237.905853 
	C83.852310,237.905228 84.373154,237.964722 84.893990,238.024231 
z"/>
<path fill="#000000" opacity="1.000000" stroke="none" 
	d="
M84.626663,239.866638 
	C84.326385,239.528519 84.476700,239.308884 84.901031,239.033035 
	C85.780388,238.920380 86.502151,238.943542 87.581779,239.013977 
	C86.946709,239.342697 85.953773,239.624100 84.626663,239.866638 
z"/>
<path fill="#709FE5" opacity="1.000000" stroke="none" 
	d="
M252.251038,91.395157 
	C253.029022,91.252876 254.080887,91.254204 255.362335,91.442032 
	C254.569565,91.598610 253.547241,91.568680 252.251038,91.395157 
z"/>
<path fill="#FF09C0" opacity="1.000000" stroke="none" 
	d="
M201.283722,138.651199 
	C200.721817,140.355835 200.239395,142.043152 199.122086,142.935852 
	C198.591888,143.359482 196.136368,142.555344 195.827011,141.791458 
	C195.382828,140.694717 195.802399,138.133392 196.385422,137.957077 
	C197.793701,137.531189 199.510376,138.125076 201.283722,138.651199 
z"/>
<path fill="#F3F06C" opacity="1.000000" stroke="none" 
	d="
M203.808350,209.837814 
	C204.456161,216.374603 199.500366,213.020279 196.441040,213.859528 
	C196.296494,211.492538 196.564133,209.187210 196.933487,206.513138 
	C199.188492,207.328873 201.341782,208.513351 203.808350,209.837814 
z"/>
<path fill="#AE2F1E" opacity="1.000000" stroke="none" 
	d="
M84.849121,237.699554 
	C84.373154,237.964722 83.852310,237.905228 82.940262,237.795868 
	C83.300789,237.622284 84.052521,237.498581 84.849121,237.699554 
z"/>
<path fill="#FAF668" opacity="1.000000" stroke="none" 
	d="
M291.997131,165.854477 
	C284.173737,165.641800 276.849487,165.392822 269.523224,165.244446 
	C265.367035,165.160248 262.866638,163.530090 262.888794,159.012375 
	C262.912292,154.224274 264.934265,151.976395 269.887665,151.972031 
	C281.216370,151.962051 292.547150,152.017441 303.873199,152.241837 
	C309.270172,152.348755 311.055817,154.269684 311.006958,159.050262 
	C310.954407,164.193176 309.093872,165.932022 303.490814,165.955963 
	C299.825897,165.971619 296.160583,165.895386 291.997131,165.854477 
z"/>
<path fill="#F3F7F7" opacity="1.000000" stroke="none" 
	d="
M252.023758,188.023849 
	C248.227142,188.018860 244.926437,188.018860 241.211456,188.018860 
	C241.211456,185.336212 241.211456,183.144302 241.211456,181.339096 
	C263.668213,181.339096 285.988525,181.339096 308.137970,181.339096 
	C309.225403,188.764816 309.036011,189.055099 302.879822,188.953369 
	C286.092621,188.675934 269.306335,188.340988 252.023758,188.023849 
z"/>
<path fill="#F1F6F7" opacity="1.000000" stroke="none" 
	d="
M291.998901,176.869629 
	C274.893951,176.864990 258.288513,176.864990 241.412689,176.864990 
	C241.412689,173.551208 241.412689,171.658646 241.412689,170.031342 
	C264.235809,170.031342 286.736633,170.031342 309.866364,170.031342 
	C309.484070,172.812088 309.244263,174.556549 308.925629,176.874283 
	C303.350677,176.874283 297.924530,176.874283 291.998901,176.869629 
z"/>
<path fill="#FC5F54" opacity="1.000000" stroke="none" 
	d="
M253.009628,151.112610 
	C254.975632,151.353027 257.362030,151.250412 258.063110,152.287308 
	C258.808411,153.389618 258.528259,155.958496 257.686035,157.204285 
	C255.775726,160.029953 253.245300,162.436401 250.311783,165.754395 
	C247.600983,162.476242 245.057205,160.052231 243.420517,157.121628 
	C242.697144,155.826385 243.307266,153.130814 244.293549,151.796524 
	C244.834686,151.064468 247.421158,151.951385 249.079239,151.902206 
	C250.287506,151.866348 251.485794,151.493530 253.009628,151.112610 
z"/>
<path fill="#F3F06C" opacity="1.000000" stroke="none" 
	d="
M284.292450,99.375168 
	C282.127563,93.329559 284.575470,89.163368 289.592346,90.258430 
	C291.476135,90.669624 293.778015,92.656868 294.370087,94.432213 
	C294.878906,95.957825 293.538696,98.420280 292.415802,100.056496 
	C291.675873,101.134712 289.871796,101.482628 288.270416,102.296738 
	C287.126648,101.499275 285.817017,100.586166 284.292450,99.375168 
z"/>
</svg>